<svg width="127" height="24" viewBox="0 0 127 24" fill="none" xmlns="http://www.w3.org/2000/svg">
<path d="M126.061 13.0607C126.646 12.4749 126.646 11.5251 126.061 10.9393L116.515 1.3934C115.929 0.807611 114.979 0.807611 114.393 1.3934C113.808 1.97919 113.808 2.92893 114.393 3.51472L122.879 12L114.393 20.4853C113.808 21.0711 113.808 22.0208 114.393 22.6066C114.979 23.1924 115.929 23.1924 116.515 22.6066L126.061 13.0607ZM2 10.5C1.17157 10.5 0.5 11.1716 0.5 12C0.5 12.8284 1.17157 13.5 2 13.5V10.5ZM125 10.5L2 10.5V13.5L125 13.5V10.5Z" fill="#3E3E3E"/>
</svg>
